<svg viewBox="0 0 45 45" xmlns="http://www.w3.org/2000/svg">
<path d="M44.3195 10.3935C44.3163 10.3745 44.317 10.3544 44.3121 10.3358C44.2984 10.2846 44.2782 10.2353 44.252 10.1892C44.2432 10.1734 44.2298 10.1607 44.2193 10.146C44.2004 10.1163 44.179 10.0883 44.1553 10.0623C44.1409 10.0475 44.1226 10.0373 44.1068 10.024C44.0833 10.0023 44.0581 9.98259 44.0315 9.96492L44.027 9.96316L44.0231 9.96035L38.8829 7.01531C38.7898 6.96199 38.6843 6.93395 38.577 6.93395C38.4697 6.93395 38.3643 6.96199 38.2712 7.01531L33.1282 9.96L33.1243 9.96281L33.1197 9.96457C33.093 9.98234 33.0677 10.0022 33.0441 10.024C33.0283 10.037 33.009 10.0475 32.996 10.0619C32.972 10.0883 32.9503 10.1166 32.9313 10.1467C32.9211 10.1614 32.9081 10.1737 32.8993 10.1892C32.873 10.2353 32.8528 10.2846 32.8392 10.3358C32.8343 10.3537 32.835 10.3731 32.8318 10.3914C32.8244 10.425 32.82 10.4592 32.8184 10.4937V11.747L28.2443 8.88246C28.2509 8.85166 28.2551 8.8204 28.2569 8.78894V3.64699C28.2553 3.61316 28.2508 3.57952 28.2436 3.54644C28.2404 3.52746 28.2411 3.50742 28.2362 3.48878C28.2225 3.43765 28.2023 3.38849 28.1761 3.34253C28.1638 3.32427 28.1505 3.30666 28.1363 3.2898C28.1194 3.26366 28.1005 3.23886 28.0797 3.21562C28.0612 3.19925 28.0417 3.18399 28.0214 3.16992C28.0006 3.15118 27.9785 3.13391 27.9553 3.11824H27.9518L27.9493 3.11296L22.8059 0.168275C22.7128 0.114961 22.6074 0.0869141 22.5001 0.0869141C22.3928 0.0869141 22.2873 0.114961 22.1942 0.168275L17.0509 3.11296L17.0466 3.11613H17.0431C17.0198 3.1319 16.9976 3.14929 16.9767 3.16816C16.9565 3.18213 16.9371 3.19727 16.9187 3.21351C16.8977 3.23707 16.8785 3.26222 16.8614 3.28874C16.8475 3.30528 16.8344 3.32253 16.8223 3.34042C16.7961 3.38649 16.7759 3.43577 16.7622 3.48703C16.7573 3.50496 16.758 3.52429 16.7548 3.54257C16.7475 3.57623 16.743 3.61046 16.7415 3.64488V8.78894C16.7432 8.82051 16.7475 8.8519 16.7541 8.88281L12.181 11.747V10.494C12.1794 10.4602 12.1749 10.4266 12.1677 10.3935C12.1645 10.3745 12.1652 10.3544 12.1603 10.3358C12.1466 10.2846 12.1264 10.2353 12.1002 10.1892C12.0914 10.1734 12.078 10.1607 12.0675 10.146C12.0486 10.1163 12.0272 10.0883 12.0035 10.0623C11.9891 10.0475 11.9708 10.0373 11.955 10.024C11.9315 10.0023 11.9063 9.98259 11.8797 9.96492L11.8752 9.96316L11.8713 9.96035L6.73039 7.01531C6.63727 6.96199 6.53183 6.93395 6.42453 6.93395C6.31723 6.93395 6.21179 6.96199 6.11867 7.01531L0.976719 9.96L0.972852 9.96281L0.968281 9.96457C0.941553 9.98234 0.916279 10.0022 0.892695 10.024C0.876875 10.037 0.857539 10.0475 0.844531 10.0619C0.820539 10.0883 0.798894 10.1166 0.779844 10.1467C0.769648 10.1614 0.756641 10.1737 0.747852 10.1892C0.721588 10.2353 0.701382 10.2846 0.687734 10.3358C0.682813 10.3537 0.683516 10.3731 0.680352 10.3914C0.67299 10.425 0.668521 10.4592 0.666992 10.4937V15.6356C0.666977 15.7461 0.696709 15.8545 0.753063 15.9495C0.809418 16.0446 0.890317 16.1227 0.987266 16.1756L5.80895 18.8085V25.8531L0.976719 28.6206L0.972852 28.6234L0.968281 28.6252C0.941553 28.6429 0.916279 28.6628 0.892695 28.6846C0.876875 28.6976 0.857539 28.7081 0.844531 28.7225C0.820539 28.7488 0.798894 28.7772 0.779844 28.8073C0.769648 28.822 0.756641 28.8343 0.747852 28.8498C0.721588 28.8959 0.701382 28.9452 0.687734 28.9964C0.682813 29.0143 0.683516 29.0337 0.680352 29.052C0.67299 29.0856 0.668521 29.1198 0.666992 29.1543V34.2962C0.667046 34.4068 0.696883 34.5152 0.753365 34.6103C0.809848 34.7053 0.890889 34.7833 0.987969 34.8362L6.12957 37.6427C6.15847 37.6568 6.18845 37.6686 6.21922 37.6779C6.23574 37.6839 6.25121 37.6927 6.26809 37.6969C6.3704 37.7247 6.47831 37.7247 6.58063 37.6969C6.5975 37.6923 6.61297 37.6835 6.62949 37.6779C6.66026 37.6686 6.69024 37.6568 6.71914 37.6427L11.0848 35.2595L16.745 39.0279V41.5778C16.745 41.6882 16.7747 41.7967 16.8311 41.8917C16.8874 41.9867 16.9683 42.0648 17.0653 42.1178L22.2069 44.9243C22.2358 44.9384 22.2658 44.9501 22.2965 44.9595C22.313 44.9654 22.3285 44.9742 22.3454 44.9784C22.4477 45.0063 22.5556 45.0063 22.6579 44.9784C22.6748 44.9739 22.6903 44.9651 22.7068 44.9595C22.7376 44.9501 22.7675 44.9384 22.7964 44.9243L27.9366 42.1171C28.0336 42.0641 28.1145 41.986 28.1708 41.891C28.2272 41.796 28.2569 41.6875 28.2569 41.5771V39.0272L33.9171 35.2588L38.2828 37.642C38.3117 37.6561 38.3417 37.6679 38.3724 37.6772C38.3889 37.6832 38.4044 37.692 38.4213 37.6962C38.5236 37.724 38.6315 37.724 38.7338 37.6962C38.7507 37.6916 38.7662 37.6828 38.7827 37.6772C38.8135 37.6679 38.8434 37.6561 38.8723 37.642L44.0122 34.8362C44.1091 34.7832 44.19 34.7052 44.2464 34.6101C44.3027 34.5151 44.3325 34.4067 44.3325 34.2962V29.1546C44.3308 29.1208 44.3264 29.0871 44.3191 29.0541C44.3159 29.0351 44.3166 29.015 44.3117 28.9964C44.2981 28.9451 44.2779 28.8959 44.2516 28.8498C44.2428 28.834 44.2295 28.8213 44.2189 28.8066C44.2 28.7769 44.1786 28.7489 44.1549 28.7229C44.1405 28.7081 44.1222 28.6979 44.1064 28.6846C44.0829 28.6629 44.0578 28.6432 44.0312 28.6255L44.0266 28.6237L44.0227 28.6209L39.1905 25.8534V18.8085L44.0118 16.1767C44.1088 16.1237 44.1897 16.0456 44.246 15.9506C44.3024 15.8556 44.3321 15.7471 44.3321 15.6367V10.494C44.3307 10.4602 44.3265 10.4266 44.3195 10.3935ZM26.2238 36.5093L22.5001 38.542L18.7763 36.5093L18.6188 36.4232L22.5001 34.2006L26.3813 36.4218L26.2238 36.5093ZM10.9505 15.2707L7.03941 17.4054V13.6658L10.9505 11.5311V15.2707ZM6.42418 26.9187L10.3054 29.1412L10.1479 29.2274L6.42418 31.2601L2.70043 29.2274L2.54293 29.1412L6.42418 26.9187ZM11.5141 28.4156L7.03941 25.8527V18.8085L11.1154 16.5834L16.7432 20.2453V24.7341L11.5141 28.4156ZM17.9737 8.42367V4.6841L21.8848 6.82019V10.5587L17.9737 8.42367ZM27.0264 8.42367L23.1153 10.5587V6.82019L27.0264 4.6848V8.42367ZM22.5001 17.6757L26.3813 19.8983L26.2238 19.9845L22.5001 22.0172L18.7763 19.9845L18.6188 19.8983L22.5001 17.6757ZM17.9737 20.9484L21.8848 23.0835V26.8241L17.9737 24.6884V20.9484ZM23.1153 23.0835L27.0264 20.9484V24.6884L23.1153 26.8241V23.0835ZM28.2569 20.2453L33.8847 16.5824L37.9607 18.8085V25.8531L33.4861 28.416L28.2569 24.7341V20.2453ZM37.96 13.6658V17.4054L34.0496 15.2707V11.5311L37.96 13.6658ZM34.0496 33.9313V30.1914L37.9607 32.3264V36.066L34.0496 33.9313ZM42.2997 29.2274L38.576 31.2601L34.8519 29.2274L34.6944 29.1412L38.5756 26.9187L42.4569 29.1412L42.2997 29.2274ZM38.576 8.25808L42.4572 10.4807L42.2997 10.5668L38.576 12.5995L34.8519 10.5668L34.6944 10.4807L38.576 8.25808ZM32.8406 15.7935L27.6213 19.1906L23.1153 16.6102V11.9607L27.2427 9.70722L32.8188 13.1989V15.6353C32.8191 15.6887 32.8265 15.7419 32.8406 15.7935ZM22.5001 1.4114L26.381 3.63433L22.6702 5.66003L22.5001 5.75285L22.3299 5.66003L18.6192 3.63398L22.5001 1.4114ZM17.7575 9.70828L21.8848 11.9618V16.6102L17.3789 19.1906L12.1596 15.7935C12.1736 15.7419 12.1808 15.6887 12.181 15.6353V13.1989L17.7575 9.70828ZM6.42418 8.25808L10.3054 10.4807L10.1479 10.5668L6.42418 12.5995L2.70043 10.5668L2.54293 10.4807L6.42418 8.25808ZM1.89852 11.5311L5.80965 13.6662V17.4054L1.89852 15.2707V11.5311ZM1.89852 30.1917L5.80965 32.3268V36.0663L1.89852 33.9313V30.1917ZM7.04012 32.3268L10.9513 30.1917V33.9313L7.04012 36.066V32.3268ZM12.1469 34.4882C12.1689 34.4264 12.1808 34.3614 12.1821 34.2959V29.4513L17.3996 25.7768L21.8848 28.2251V33.135L17.0509 35.9025L17.047 35.9053L17.0424 35.9071C17.0157 35.9248 16.9904 35.9447 16.9668 35.9665C16.951 35.9795 16.9317 35.99 16.9187 36.0045C16.8947 36.0308 16.873 36.0591 16.854 36.0892C16.8438 36.1039 16.8308 36.1162 16.822 36.1317C16.7957 36.1778 16.7755 36.2271 16.7619 36.2783C16.757 36.2962 16.7577 36.3156 16.7545 36.3339C16.7471 36.3675 16.7427 36.4018 16.7411 36.4362V37.5492L12.1469 34.4882ZM17.9737 38.6953V37.4729L21.8848 39.608V43.3475L17.9737 41.2129V38.6953ZM23.1153 43.3475V39.6083L27.0264 37.4733V41.2132L23.1153 43.3475ZM28.2569 36.4362C28.2553 36.4023 28.2508 36.3687 28.2436 36.3356C28.2404 36.3166 28.2411 36.2966 28.2362 36.278C28.2225 36.2267 28.2023 36.1774 28.1761 36.1314C28.1673 36.1155 28.1539 36.1029 28.1434 36.0881C28.1245 36.0584 28.1031 36.0304 28.0794 36.0045C28.065 35.9897 28.0467 35.9795 28.0309 35.9661C28.0074 35.9445 27.9822 35.9247 27.9556 35.9071L27.9511 35.9053L27.9472 35.9025L23.1153 33.135V28.2251L27.6005 25.7768L32.8191 29.4513V34.2962C32.8204 34.3618 32.8323 34.4267 32.8543 34.4885L28.258 37.5496L28.2569 36.4362ZM39.1905 36.0656V32.3264L43.1016 30.1914V33.9313L39.1905 36.0656ZM39.1905 17.405V13.6658L43.1016 11.5311V15.2707L39.1905 17.405Z" stroke-width="0"/>
</svg>
