<svg viewBox="0 0 43 44" fill="none" xmlns="http://www.w3.org/2000/svg">
<g clip-path="url(#clip0)">
<path d="M13.2412 6.05518C14.6808 7.58689 16.4069 8.80516 18.3162 9.63712C20.2255 10.4691 22.2788 10.8976 24.3533 10.8972C26.4544 10.8978 28.5336 10.459 30.4638 9.60768" stroke-width="2" stroke-linecap="round" stroke-linejoin="round"/>
<path d="M21.2536 20.4325C26.389 20.4325 30.552 16.1635 30.552 10.8974C30.552 5.63132 26.389 1.3623 21.2536 1.3623C16.1181 1.3623 11.9551 5.63132 11.9551 10.8974C11.9551 16.1635 16.1181 20.4325 21.2536 20.4325Z"  stroke-width="2" stroke-linecap="round" stroke-linejoin="round"/>
<path d="M3.98486 42.2271C3.98486 37.5306 5.80423 33.0265 9.04272 29.7056C12.2812 26.3847 16.6735 24.519 21.2535 24.519C25.8334 24.519 30.2257 26.3847 33.4642 29.7056C36.7027 33.0265 38.5221 37.5306 38.5221 42.2271"  stroke-width="2" stroke-linecap="round" stroke-linejoin="round"/>
</g>
<defs>
<clipPath id="clip0">
<rect width="42.5073" height="43.589" fill="white"/>
</clipPath>
</defs>
</svg>
