<svg viewBox="0 0 604 572" fill="none" xmlns="http://www.w3.org/2000/svg">
<path d="M285 11V151.93C285 39.0655 325.435 10 394.323 10H286C285.448 10 285 10.4477 285 11Z" class="X2Icon-2" />
<path d="M593 10H470.7C594 10 594 242.147 454.725 370.111L593.676 242.444C593.883 242.255 594 241.987 594 241.708V11C594 10.4477 593.552 10 593 10Z" class="X2Icon-2" />
<path d="M286.409 560.351L394.323 434C314.039 528 384 562 594 562H358.71H323.098H287.169C286.316 562 285.854 561 286.409 560.351Z" class="X2Icon-2" />
<path d="M168.8 369L266.4 569H190.4L132 433.8L75.2 569H0L96 369.8L5.6 178.6H82.4L132.8 306.6L182.4 178.6H257.6L168.8 369Z" class="X2Icon-X" />
</svg>
