<svg viewBox="0 0 42 41" xmlns="http://www.w3.org/2000/svg">
<path d="M19.5809 15.0617V7.77705C21.2852 7.33914 22.5485 5.78954 22.5485 3.95037C22.5485 1.77208 20.7764 0 18.5981 0C16.42 0 14.6479 1.77208 14.6479 3.95037C14.6479 5.78954 15.9112 7.339 17.6154 7.77692V15.0615C15.5483 15.3726 13.7933 16.649 12.8254 18.4156L8.50259 15.0551C8.60833 14.7575 8.66638 14.4374 8.66638 14.1041C8.66638 12.533 7.38816 11.2548 5.81708 11.2548C4.246 11.2548 2.96777 12.533 2.96777 14.1041C2.96777 15.6752 4.246 16.9534 5.81708 16.9534C6.33754 16.9534 6.82537 16.8124 7.24572 16.5678L12.1319 20.3663C12.0599 20.7556 12.0203 21.156 12.0203 21.5659C12.0203 23.0256 12.4988 24.3752 13.3064 25.4676L7.78165 30.9924C7.39785 31.3762 7.39785 31.9984 7.78165 32.3821C7.97361 32.5739 8.22519 32.67 8.47664 32.67C8.7281 32.67 8.97968 32.5741 9.17164 32.3821L14.6964 26.8574C15.5388 27.4802 16.5342 27.9072 17.6154 28.0699V35.3708C16.527 35.772 15.7488 36.8195 15.7488 38.0453C15.7488 39.6164 17.027 40.8946 18.5981 40.8946C20.1692 40.8946 21.4474 39.6164 21.4474 38.0453C21.4474 36.8194 20.6692 35.7719 19.5809 35.3708V28.0701C22.7435 27.5943 25.176 24.859 25.176 21.566C25.176 18.2728 22.7433 15.5375 19.5809 15.0617ZM5.81708 14.988C5.32964 14.988 4.93326 14.5915 4.93326 14.1042C4.93326 13.6169 5.32964 13.2204 5.81708 13.2204C6.30452 13.2204 6.70089 13.6169 6.70089 14.1042C6.70089 14.5915 6.30439 14.988 5.81708 14.988ZM16.6132 3.95037C16.6132 2.85586 17.5036 1.96549 18.598 1.96549C19.6924 1.96549 20.5829 2.85586 20.5829 3.95037C20.5829 5.04489 19.6924 5.93525 18.598 5.93525C17.5036 5.93525 16.6132 5.04489 16.6132 3.95037ZM18.5981 38.9291C18.1107 38.9291 17.7143 38.5326 17.7143 38.0453C17.7143 37.6188 18.0179 37.2619 18.4204 37.1795C18.4781 37.1901 18.5373 37.1964 18.5981 37.1964C18.6589 37.1964 18.7181 37.1901 18.7758 37.1795C19.1783 37.2619 19.4819 37.6188 19.4819 38.0453C19.4819 38.5326 19.0854 38.9291 18.5981 38.9291ZM18.5981 26.1781C16.0549 26.1781 13.9859 24.1089 13.9859 21.5657C13.9859 21.117 14.0516 20.6834 14.1716 20.2728C14.178 20.2525 14.184 20.2324 14.189 20.2118C14.7688 18.3273 16.5258 16.9534 18.5981 16.9534C21.1413 16.9534 23.2105 19.0225 23.2105 21.5657C23.2105 24.1091 21.1413 26.1781 18.5981 26.1781Z"/>
<path d="M38.0499 12.0205C35.8716 12.0205 34.0995 13.7926 34.0995 15.9709C34.0995 16.0724 34.1047 16.1727 34.1123 16.2723L27.0053 18.6954C26.4915 18.8705 26.217 19.4291 26.3922 19.9427C26.5315 20.3514 26.9133 20.6086 27.3223 20.6086C27.4275 20.6086 27.5344 20.5916 27.6395 20.5558L34.7462 18.1328C35.4527 19.2088 36.6694 19.9214 38.0501 19.9214C40.2282 19.9214 42.0003 18.1493 42.0003 15.971C42.0002 13.7927 40.2281 12.0205 38.0499 12.0205ZM38.0499 17.9559C36.9554 17.9559 36.065 17.0655 36.065 15.971C36.065 14.8765 36.9555 13.9861 38.0499 13.9861C39.1443 13.9861 40.0347 14.8765 40.0347 15.971C40.0347 17.0654 39.1443 17.9559 38.0499 17.9559Z"/>
<path d="M3.95037 32.2632C1.77208 32.2632 0 34.0354 0 36.2136C0 38.3918 1.77208 40.1639 3.95037 40.1639C6.12852 40.1639 7.90061 38.3918 7.90061 36.2136C7.90074 34.0354 6.12852 32.2632 3.95037 32.2632ZM3.95037 38.1986C2.85585 38.1986 1.96549 37.3082 1.96549 36.2137C1.96549 35.1192 2.85599 34.2288 3.95037 34.2288C5.04475 34.2288 5.93512 35.1192 5.93512 36.2137C5.93525 37.3081 5.04489 38.1986 3.95037 38.1986Z"/>
</svg>
