<svg viewBox="0 0 38 34"  xmlns="http://www.w3.org/2000/svg">
<path d="M36.0999 15.8667H30.3999V2.83333C30.3978 1.26919 28.9814 0.00193685 27.2333 0H6.33327C4.93424 0 3.79993 1.01491 3.79993 2.26667V9.06667H1.89993C1.55018 9.06667 1.2666 9.32039 1.2666 9.63333V13.0333C1.2666 13.3463 1.55018 13.6 1.89993 13.6H3.79993V19.8333C3.79993 20.1463 4.08351 20.4 4.43327 20.4H7.59993V31.7333C7.59993 32.9851 8.73424 34 10.1333 34H31.0333C32.4323 34 33.5666 32.9851 33.5666 31.7333C33.5666 30.4816 32.4323 29.4667 31.0333 29.4667H30.3999V20.4H36.0999C36.4497 20.4 36.7333 20.1463 36.7333 19.8333V16.4333C36.7333 16.1204 36.4497 15.8667 36.0999 15.8667ZM5.0666 2.26667C5.0666 1.64079 5.63376 1.13333 6.33327 1.13333C7.03278 1.13333 7.59993 1.64079 7.59993 2.26667V9.06667H5.0666V2.26667ZM2.53327 10.2H20.2666C20.5851 10.2 20.8542 9.98861 20.895 9.70583L23.0773 11.3333L20.895 12.9608C20.8542 12.6781 20.5851 12.4667 20.2666 12.4667H2.53327V10.2ZM5.0666 19.2667V13.6H7.59993V19.2667H5.0666ZM32.2999 31.7333C32.2999 32.3592 31.7328 32.8667 31.0333 32.8667H12.3264C12.55 32.5225 12.6672 32.1315 12.6666 31.7333V30.6H31.0333C31.7328 30.6 32.2999 31.1075 32.2999 31.7333ZM29.1333 29.4667H12.0333C11.6835 29.4667 11.3999 29.7204 11.3999 30.0333V31.7333C11.3999 32.3592 10.8328 32.8667 10.1333 32.8667C9.43376 32.8667 8.8666 32.3592 8.8666 31.7333V13.6H19.6333V14.1667C19.6333 14.3866 19.7755 14.587 19.9982 14.6802C20.2208 14.7735 20.4837 14.743 20.6726 14.6019L24.4726 11.7686C24.6167 11.6609 24.7002 11.5016 24.7002 11.3333C24.7002 11.1651 24.6167 11.0057 24.4726 10.8981L20.6726 8.06476C20.4837 7.92365 20.2208 7.89321 19.9982 7.98646C19.7755 8.0797 19.6333 8.28003 19.6333 8.5V9.06667H8.8666V2.26667C8.86444 1.86768 8.74321 1.47643 8.51561 1.13333H27.2333C28.2825 1.13333 29.1333 1.89451 29.1333 2.83333V15.8667H18.3666V15.3C18.3666 15.08 18.2243 14.8797 18.0017 14.7865C17.779 14.6932 17.5162 14.7236 17.3272 14.8648L13.5272 17.6981C13.3831 17.8057 13.2996 17.9651 13.2996 18.1333C13.2996 18.3016 13.3831 18.4609 13.5272 18.5686L17.3272 21.4019C17.5162 21.543 17.779 21.5735 18.0017 21.4802C18.2243 21.387 18.3666 21.1866 18.3666 20.9667V20.4H29.1333V29.4667ZM35.4666 19.2667H17.7333C17.6516 19.2669 17.5709 19.2816 17.4958 19.3098C17.4726 19.3206 17.4503 19.3328 17.4287 19.3461C17.3832 19.3671 17.3405 19.3928 17.3019 19.423C17.2815 19.4435 17.2626 19.4651 17.2456 19.4877C17.2147 19.5196 17.1884 19.5544 17.1664 19.5921C17.1541 19.6186 17.1445 19.6463 17.1374 19.6748C17.1241 19.7025 17.1135 19.7312 17.1061 19.7608L14.9225 18.1333L17.1049 16.5058C17.1123 16.5354 17.1228 16.5642 17.1361 16.5919C17.1429 16.6204 17.1528 16.648 17.1652 16.6746C17.1868 16.7122 17.2134 16.7471 17.2444 16.7789C17.2614 16.8016 17.2802 16.8232 17.3006 16.8437C17.3393 16.8738 17.382 16.8996 17.4274 16.9206C17.4491 16.9339 17.4713 16.946 17.4945 16.9568C17.57 16.9853 17.6513 17 17.7333 17H35.4666V19.2667Z" stroke-width="1" />
</svg>
